<svg xmlns="http://www.w3.org/2000/svg" width="40" height="40" viewBox="0 0 40 40" fill="none"><path d="M0 2.30054V37.6994H40V2.30054H0ZM26.5157 4.64429L22.1058 9.96507H2.34375V4.64429H26.5157ZM37.6562 35.3557H2.34375V12.3088H23.2073L29.5598 4.64429H37.6562V35.3557Z" fill="#02549D"></path><path d="M5.02612 6.13611H7.36987V8.49291H5.02612V6.13611Z" fill="#02549D"></path><path d="M9.34888 6.13611H11.6926V8.49291H9.34888V6.13611Z" fill="#02549D"></path><path d="M13.6719 6.13611H16.0156V8.49291H13.6719V6.13611Z" fill="#02549D"></path><path d="M15.9841 25.4297C15.9841 26.5282 15.0905 27.4219 13.9919 27.4219C12.8934 27.4219 11.9998 26.5282 11.9998 25.4297V18.125H9.65601V25.4297C9.65601 27.8205 11.6011 29.7656 13.9919 29.7656C16.3828 29.7656 18.3279 27.8205 18.3279 25.4297V18.125H15.9841V25.4297Z" fill="#02549D"></path><path d="M27.1787 18.0859L25.2656 21.5312L23.3527 18.0859H20.6719L23.9252 23.9453L20.6719 29.8047H23.3527L25.2656 26.3595L27.1787 29.8047H29.8595L26.6061 23.9453L29.8595 18.0859H27.1787Z" fill="#02549D"></path></svg>