<svg xmlns="http://www.w3.org/2000/svg" width="40" height="40" viewBox="0 0 40 40" fill="none"><path d="M15.8756 20.6056L18.6806 14.7956C19.0969 14.9275 19.54 15 20 15C20.9275 15 21.7869 14.7081 22.495 14.2138L26.2094 18.1931C25.845 18.705 25.625 19.3256 25.625 20C25.625 21.7231 27.0269 23.125 28.75 23.125C30.4731 23.125 31.875 21.7231 31.875 20C31.875 18.8762 31.2731 17.8975 30.38 17.3463L32.4288 11.7113C32.8538 11.8144 33.2944 11.875 33.75 11.875C36.8512 11.875 39.375 9.35125 39.375 6.25C39.375 3.14875 36.8512 0.625 33.75 0.625C30.6488 0.625 28.125 3.14875 28.125 6.25C28.125 8.45437 29.4031 10.3619 31.2544 11.2838L29.2044 16.9212C29.055 16.8988 28.9056 16.875 28.75 16.875C28.1531 16.875 27.6 17.0519 27.1256 17.3438L23.4087 13.3612C24.0119 12.6112 24.375 11.66 24.375 10.625C24.375 8.2125 22.4125 6.25 20 6.25C17.5875 6.25 15.625 8.2125 15.625 10.625C15.625 12.1325 16.3919 13.465 17.5556 14.2519L14.7512 20.06C13.6681 19.6219 12.4881 19.375 11.25 19.375C6.08063 19.375 1.875 23.5806 1.875 28.75C1.875 33.9194 6.08063 38.125 11.25 38.125C16.4194 38.125 20.625 33.9194 20.625 28.75C20.625 25.2631 18.7075 22.2206 15.8756 20.6056ZM11.25 36.25C7.10813 36.25 3.75 32.8919 3.75 28.75C3.75 24.6081 7.10813 21.25 11.25 21.25C12.1969 21.25 13.0994 21.4331 13.9338 21.7531L12.0138 25.7306C11.7681 25.6681 11.515 25.625 11.25 25.625C9.52688 25.625 8.125 27.0269 8.125 28.75C8.125 30.4731 9.52688 31.875 11.25 31.875C12.9731 31.875 14.375 30.4731 14.375 28.75C14.375 27.7394 13.8844 26.8481 13.1381 26.2769L15.0594 22.2975C17.2656 23.6031 18.75 26 18.75 28.75C18.75 32.8919 15.3919 36.25 11.25 36.25Z" fill="#02549D"></path><path d="M36.25 26.875H24.375V30.625H36.25C37.2837 30.625 38.125 29.7838 38.125 28.75C38.125 27.7162 37.2837 26.875 36.25 26.875Z" fill="#02549D"></path><path d="M22.4999 25.625H21.4043C21.7093 26.6137 21.8749 27.6625 21.8749 28.75C21.8749 29.8375 21.7093 30.8863 21.4043 31.875H22.4999C22.8443 31.875 23.1249 31.5944 23.1249 31.25V26.25C23.1249 25.9056 22.8443 25.625 22.4999 25.625Z" fill="#02549D"></path><path d="M12.5 14.375C13.5337 14.375 14.375 13.5337 14.375 12.5V5C14.375 3.96625 13.5337 3.125 12.5 3.125H2.5C1.46625 3.125 0.625 3.96625 0.625 5V12.5C0.625 13.5337 1.46625 14.375 2.5 14.375H12.5ZM6.875 11.875H5.625V10.625H6.875V11.875ZM9.375 11.875H8.125V10.625H9.375V11.875ZM11.875 11.875H10.625V10.625H11.875V11.875ZM3.125 5.625H11.875V6.875H3.125V5.625ZM3.125 8.125H11.875V9.375H3.125V8.125ZM3.125 10.625H4.375V11.875H3.125V10.625Z" fill="#02549D"></path></svg>