<svg xmlns="http://www.w3.org/2000/svg" width="36" height="40" viewBox="0 0 36 40" fill="none"><path d="M34.9921 31.0784L33.9045 30.4492C33.1238 29.9975 33.1217 28.8684 33.9045 28.4155L34.9921 27.7862C35.5527 27.4621 35.7447 26.744 35.4212 26.1825L33.0774 22.1148C32.7537 21.5533 32.0371 21.3607 31.4765 21.6851L30.3889 22.3144C29.6064 22.767 28.631 22.2012 28.631 21.2976V20.039C28.631 19.3905 28.1065 18.865 27.4592 18.865H26.2031V4.30541C26.2031 1.93145 24.2756 0 21.9062 0H4.71874C2.34936 0 0.421875 1.93145 0.421875 4.30541V35.6948C0.421875 38.0688 2.34936 39.9999 4.71874 39.9999H27.4592C28.1065 39.9999 28.631 39.4744 28.631 38.8259V37.5674C28.631 36.6644 29.6064 36.0976 30.3889 36.5505L31.4765 37.1798C32.0368 37.5039 32.7537 37.3113 33.0774 36.7498L35.4212 32.6824C35.7447 32.1209 35.5527 31.4028 34.9921 31.0784ZM22.7717 18.865C22.1244 18.865 21.5998 19.3905 21.5998 20.039V21.2976C21.5998 22.2009 20.6245 22.7673 19.842 22.3144L18.7544 21.6851C18.1938 21.3607 17.4769 21.5536 17.1534 22.1151L14.8097 26.1825C14.4862 26.744 14.6781 27.4621 15.2387 27.7862L16.3264 28.4158C17.107 28.8674 17.1089 29.9966 16.3264 30.4495L16.1897 30.5285H2.76562V9.39329H23.8593V18.865H22.7717ZM4.71874 2.34832H21.9062C22.9832 2.34832 23.8593 3.22631 23.8593 4.30541V7.04497H2.76562V4.30541C2.76562 3.22631 3.64178 2.34832 4.71874 2.34832ZM2.76562 35.6945V32.8765H14.9217L17.1534 36.7498C17.4772 37.3116 18.1938 37.5039 18.7544 37.1795L19.842 36.5505C20.5537 36.1388 21.5998 36.5435 21.5998 37.6516H4.71874C3.64178 37.6516 2.76562 36.7736 2.76562 35.6945ZM32.8052 32.5253L31.6334 34.559C29.2069 33.1561 26.2873 34.7924 26.2873 37.6516C25.264 37.6516 24.7013 37.6516 23.9436 37.6516C23.9436 34.7927 21.0261 33.1548 18.5972 34.559L17.4253 32.5253C19.8737 31.1071 19.8762 27.759 17.4253 26.3397L18.5972 24.306C21.0236 25.7089 23.9436 24.0725 23.9436 21.2133H26.2873C26.2873 24.0264 29.1651 25.733 31.6334 24.306L32.8052 26.3397C30.3913 27.738 30.322 31.087 32.8052 32.5253Z" fill="#02549D"></path></svg>