<svg xmlns="http://www.w3.org/2000/svg" width="40" height="40" viewBox="0 0 40 40" fill="none"><path d="M34.1406 28.2812H23.5156V15.2344C23.5156 14.5872 22.9909 14.0625 22.3438 14.0625H5.85938C5.21219 14.0625 4.6875 14.5872 4.6875 15.2344V28.3991C2.01625 28.9436 0 31.311 0 34.1406C0 37.3715 2.62852 40 5.85938 40H34.1406C37.3715 40 40 37.3715 40 34.1406C40 30.9098 37.3715 28.2812 34.1406 28.2812ZM12.9688 16.4062H15.3125V19.4365L14.9692 19.0932C14.5116 18.6355 13.7696 18.6355 13.312 19.0932L12.9688 19.4365V16.4062ZM10.625 16.4062V22.2656C10.625 22.7396 10.9105 23.167 11.3484 23.3483C11.7864 23.5297 12.2905 23.4294 12.6255 23.0943L14.1406 21.5791L15.6558 23.0943C15.9909 23.4295 16.4949 23.5297 16.9329 23.3483C17.3708 23.1669 17.6563 22.7396 17.6563 22.2656V16.4062H21.172V28.2812H7.03125V16.4062H10.625ZM34.1406 37.6562H5.85938C3.92086 37.6562 2.34375 36.0791 2.34375 34.1406C2.34375 32.2021 3.92086 30.625 5.85938 30.625H34.1406C36.0791 30.625 37.6562 32.2021 37.6562 34.1406C37.6562 36.0791 36.0791 37.6562 34.1406 37.6562Z" fill="#02549D"></path><path d="M27.1094 32.9688H12.9688C12.3216 32.9688 11.7969 33.4934 11.7969 34.1406C11.7969 34.7878 12.3216 35.3125 12.9688 35.3125H27.1094C27.7566 35.3125 28.2812 34.7878 28.2812 34.1406C28.2812 33.4934 27.7566 32.9688 27.1094 32.9688Z" fill="#02549D"></path><path d="M34.1406 35.3125C34.7878 35.3125 35.3125 34.7878 35.3125 34.1406C35.3125 33.4934 34.7878 32.9688 34.1406 32.9688C33.4934 32.9688 32.9688 33.4934 32.9688 34.1406C32.9688 34.7878 33.4934 35.3125 34.1406 35.3125Z" fill="#02549D"></path><path d="M5.85938 35.3125C6.50658 35.3125 7.03125 34.7878 7.03125 34.1406C7.03125 33.4934 6.50658 32.9688 5.85938 32.9688C5.21217 32.9688 4.6875 33.4934 4.6875 34.1406C4.6875 34.7878 5.21217 35.3125 5.85938 35.3125Z" fill="#02549D"></path><path d="M31.7188 0C27.1955 0 23.5156 3.67992 23.5156 8.20312C23.5156 12.7263 27.1955 16.4062 31.7188 16.4062C36.2538 16.4062 40 12.7254 40 8.20312C40 3.6868 36.2591 0 31.7188 0ZM31.7188 14.0625C28.4879 14.0625 25.8594 11.434 25.8594 8.20312C25.8594 4.97227 28.4879 2.34375 31.7188 2.34375C34.9927 2.34375 37.6562 4.97227 37.6562 8.20312C37.6562 11.434 34.9927 14.0625 31.7188 14.0625Z" fill="#02549D"></path><path d="M33.2339 6.20261L30.5469 8.88964L29.6177 7.96042C29.1601 7.50277 28.4181 7.50277 27.9604 7.96042C27.5028 8.41808 27.5028 9.16003 27.9604 9.61769L29.7182 11.3755C29.9471 11.6044 30.247 11.7188 30.5469 11.7188C30.8468 11.7188 31.1468 11.6044 31.3755 11.3756L34.8911 7.85995C35.3488 7.4023 35.3488 6.66034 34.8911 6.20269C34.4335 5.74495 33.6915 5.74495 33.2339 6.20261Z" fill="#02549D"></path></svg>