<svg xmlns="http://www.w3.org/2000/svg" width="40" height="40" viewBox="0 0 40 40" fill="none"><g clip-path="url(#clip0)"><path d="M29.8812 11.7267C28.4059 7.42922 24.3419 4.45312 19.6714 4.45312C15.2345 4.45312 11.4997 7.10359 9.81756 10.8344C4.89505 9.46933 0 13.184 0 18.3003C0 22.5715 3.47506 26.0463 7.74602 26.0463H9.20294V26.5016C9.20294 27.1821 9.755 27.7342 10.4355 27.7342H12.1824L12.4067 28.2765L11.1716 29.5116C10.691 29.9931 10.691 30.7738 11.1716 31.2544L13.5587 33.6415C14.0409 34.1237 14.821 34.1228 15.3022 33.6415L16.5373 32.4065L17.0796 32.6314V34.3776C17.0796 35.0588 17.6319 35.6102 18.3122 35.6102H21.6878C22.368 35.6102 22.9204 35.0588 22.9204 34.3776V32.6314L23.4627 32.4065L24.6977 33.6415C25.1799 34.1237 25.9599 34.1228 26.4412 33.6415L28.8283 31.2544C29.309 30.7738 29.309 29.9931 28.8283 29.5116L27.5932 28.2765L27.8176 27.7342H29.5644C30.2449 27.7342 30.797 27.1821 30.797 26.5016V26.0463H32.5859C36.6738 26.0463 39.9999 22.7201 39.9999 18.6314C40.0002 13.4406 34.7527 9.81754 29.8812 11.7267ZM32.5859 23.5814H30.7973V23.126C30.7973 22.4449 30.2452 21.8937 29.5647 21.8937H27.8179L27.5935 21.3505L28.8286 20.1155C29.3093 19.6348 29.3093 18.8542 28.8286 18.3726L26.4415 15.9855C25.959 15.5048 25.1802 15.5048 24.698 15.9855L23.463 17.2205L22.9207 16.9962V15.2494C22.9207 14.5692 22.3683 14.0168 21.6881 14.0168H18.3125C17.6322 14.0168 17.0799 14.5692 17.0799 15.2494V16.9962L16.5376 17.2205L15.3025 15.9855C14.82 15.5048 14.0415 15.5048 13.559 15.9855L11.1719 18.3726C10.6913 18.8542 10.6913 19.6348 11.1719 20.1155L12.407 21.3505L12.1827 21.8937H10.4355C9.75531 21.8937 9.20294 22.4449 9.20294 23.126V23.5814C9.20233 23.5814 7.74632 23.5814 7.74632 23.5814C4.83401 23.5814 2.46522 21.2126 2.46522 18.3003C2.46522 14.4312 6.51524 11.8686 10.0059 13.527C10.68 13.8462 11.4875 13.4995 11.7118 12.7784C12.7988 9.2731 15.9977 6.91804 19.6714 6.91804C23.7062 6.91804 27.1538 9.79495 27.8697 13.758C28.0278 14.6406 29.048 15.0605 29.7817 14.5542C33.0495 12.302 37.5353 14.6512 37.5353 18.6314C37.5353 21.3612 35.3148 23.5814 32.5859 23.5814ZM28.3321 25.2693H26.909C26.3988 25.2693 25.9483 25.583 25.7634 26.0466C25.6816 26.2559 25.5779 26.9581 25.0264 27.8648C24.7307 28.3507 24.8054 28.9751 25.2074 29.3776L26.2138 30.3835L25.5696 31.0268L24.5637 30.0212C24.1618 29.6193 23.5365 29.5445 23.051 29.8396C22.5374 30.1524 21.9804 30.3835 21.396 30.5257C20.8439 30.6596 20.4551 31.1543 20.4551 31.7229V33.1453H19.5448V31.7229C19.5448 31.154 19.156 30.6593 18.6039 30.5257C18.0198 30.3835 17.4626 30.1524 16.949 29.8393C16.4634 29.5445 15.8381 29.6193 15.4362 30.0209L14.4306 31.0268L13.7864 30.3835L14.7929 29.3776C15.1948 28.9751 15.2696 28.3504 14.9735 27.8648C14.4215 26.9569 14.3183 26.2559 14.2365 26.0463C14.0516 25.583 13.6015 25.269 13.0912 25.269H11.6679C11.6679 24.9397 11.6679 24.6879 11.6679 24.3586H13.0912C13.6015 24.3586 14.0516 24.0449 14.2365 23.5814C14.3195 23.3689 14.4212 22.6716 14.9735 21.7628C15.2696 21.2773 15.1948 20.652 14.7929 20.25L13.7864 19.2445L14.4306 18.6002L15.4365 19.6058C15.8384 20.0086 16.4637 20.0834 16.9493 19.7877C17.4629 19.4752 18.0198 19.2445 18.6042 19.1023C19.1563 18.9674 19.5451 18.4727 19.5451 17.9041V16.482H20.4554V17.9041C20.4554 18.4727 20.8442 18.9674 21.3963 19.1023C21.9804 19.2445 22.5377 19.4752 23.0513 19.7877C23.5368 20.0834 24.1621 20.0086 24.5641 19.6058L25.5696 18.6002L26.2138 19.2445L25.2074 20.25C24.8054 20.652 24.7307 21.2773 25.0267 21.7628C25.5782 22.6701 25.6844 23.3781 25.7637 23.5814C25.9486 24.0449 26.3988 24.3586 26.909 24.3586H28.3324C28.3321 24.6882 28.3321 24.9397 28.3321 25.2693Z" fill="#02549D"></path><path d="M20 20.4373C17.5876 20.4373 15.6238 22.4005 15.6238 24.8138C15.6238 27.2256 17.5861 29.1901 20 29.1901C22.4128 29.1901 24.3763 27.2269 24.3763 24.8138C24.3763 22.402 22.414 20.4373 20 20.4373ZM20 26.7252C18.9423 26.7252 18.0887 25.8621 18.0887 24.8138C18.0887 23.7579 18.9484 22.9025 20 22.9025C21.052 22.9025 21.9114 23.7582 21.9114 24.8138C21.9114 25.8615 21.0584 26.7252 20 26.7252Z" fill="#02549D"></path></g><defs><clipPath id="clip0"><rect width="40" height="40" fill="white"></rect></clipPath></defs></svg>