<svg xmlns="http://www.w3.org/2000/svg" width="40" height="40" viewBox="0 0 40 40" fill="none"><g clip-path="url(#clip0)"><path d="M22.7716 40H17.2283C15.8749 40 14.7233 39.075 14.4266 37.7517L13.7233 34.63C12.5783 34.145 11.4883 33.5117 10.4666 32.74L7.42992 33.6983C6.12659 34.1 4.70992 33.5483 4.05659 32.385L1.29326 27.605C0.631588 26.4217 0.854922 24.9633 1.82992 24.0467L4.18325 21.8833C4.11159 21.25 4.07492 20.6183 4.07492 20C4.07492 19.3817 4.10992 18.75 4.18159 18.1167L1.83992 15.9633C0.854922 15.0367 0.629922 13.58 1.28492 12.4117L4.06492 7.60333C4.71159 6.45333 6.12659 5.89667 7.42659 6.30167L10.4666 7.26C11.4883 6.48833 12.5799 5.855 13.7233 5.37L14.4266 2.24667C14.7233 0.925 15.8749 0 17.2283 0H22.7716C24.1249 0 25.2766 0.925 25.5733 2.24833L26.2766 5.37C27.4216 5.855 28.5116 6.48833 29.5333 7.26L32.5699 6.30167C33.8699 5.895 35.2883 6.45167 35.9433 7.615L38.7066 12.395C39.3683 13.5783 39.1449 15.0367 38.1699 15.9533L35.8166 18.1167C35.8883 18.75 35.9233 19.3817 35.9233 20C35.9233 20.6183 35.8883 21.25 35.8166 21.8833L38.1599 24.0367C38.1633 24.04 38.1666 24.0433 38.1699 24.0467C39.1449 24.9633 39.3699 26.42 38.7149 27.5883L35.9349 32.3967C35.2866 33.5467 33.8716 34.1033 32.5733 33.6983L29.5316 32.7383C28.5099 33.51 27.4183 34.1433 26.2749 34.6283L25.5716 37.7517C25.2766 39.075 24.1249 40 22.7716 40ZM10.7233 30.0983C11.0099 30.0983 11.2916 30.1967 11.5199 30.3833C12.6616 31.325 13.9116 32.05 15.2333 32.5383C15.6299 32.685 15.9266 33.0233 16.0199 33.4367L16.8683 37.2033C16.9066 37.375 17.0599 37.5 17.2316 37.5H22.7749C22.9466 37.5 23.0983 37.375 23.1383 37.205L23.9866 33.4383C24.0799 33.025 24.3749 32.6867 24.7733 32.54C26.0949 32.0517 27.3449 31.325 28.4866 30.385C28.8133 30.115 29.2516 30.0283 29.6583 30.1567L33.3266 31.315C33.4999 31.3683 33.6866 31.3083 33.7683 31.16L36.5483 26.3533C36.6316 26.205 36.6016 26.0017 36.4666 25.8717L33.6533 23.285C33.3466 23.0033 33.2016 22.59 33.2649 22.1783C33.3749 21.445 33.4316 20.7117 33.4316 20C33.4316 19.2883 33.3766 18.5567 33.2649 17.8217C33.2033 17.41 33.3483 16.9967 33.6533 16.715L36.4733 14.1217C36.5999 14.0017 36.6333 13.7967 36.5399 13.6317L33.7766 8.85333C33.6866 8.695 33.5066 8.63333 33.3233 8.68667L29.6599 9.84333C29.2533 9.97167 28.8149 9.885 28.4883 9.615C27.3466 8.67333 26.0966 7.94833 24.7749 7.46C24.3783 7.31333 24.0816 6.975 23.9883 6.56167L23.1399 2.795C23.0949 2.625 22.9433 2.5 22.7716 2.5H17.2283C17.0566 2.5 16.9049 2.625 16.8649 2.795L16.0166 6.56333C15.9249 6.97667 15.6283 7.31333 15.2316 7.46167C13.9099 7.95 12.6599 8.675 11.5183 9.61667C11.1916 9.88667 10.7533 9.97167 10.3466 9.845L6.67826 8.68667C6.50492 8.63333 6.31826 8.695 6.23659 8.84167L3.45659 13.6467C3.37159 13.7967 3.40492 14.0017 3.54159 14.1317L6.35326 16.715C6.65992 16.9967 6.80492 17.41 6.74159 17.8217C6.63159 18.555 6.57492 19.2883 6.57492 20C6.57492 20.7117 6.62992 21.4433 6.74159 22.1783C6.80326 22.59 6.65826 23.0033 6.35326 23.285L3.53325 25.8783C3.40659 25.9983 3.37325 26.2033 3.46659 26.3683L6.22992 31.1467C6.32159 31.3067 6.50326 31.3717 6.68326 31.3133L10.3466 30.1567C10.4699 30.1167 10.5966 30.0983 10.7233 30.0983Z" fill="#02549D"></path><path d="M18.7517 26.6666C18.6567 26.6666 18.5634 26.6566 18.4684 26.635C17.7967 26.48 17.3767 25.8083 17.5317 25.1366L20.0317 14.3033C20.1867 13.6283 20.8667 13.2133 21.53 13.365C22.2017 13.52 22.6217 14.1916 22.4667 14.8633L19.9667 25.6966C19.8334 26.2766 19.32 26.6666 18.7517 26.6666Z" fill="#02549D"></path><path d="M25.4167 24.9999C25.0751 24.9999 24.7351 24.8616 24.4867 24.5866C24.0251 24.0733 24.0667 23.2833 24.5801 22.8199L27.7151 20L24.5801 17.18C24.0667 16.7183 24.0251 15.9283 24.4867 15.4133C24.9501 14.9016 25.7401 14.86 26.2534 15.32L30.4201 19.07C30.6834 19.3083 30.8334 19.6466 30.8334 20C30.8334 20.3533 30.6834 20.6916 30.4201 20.9299L26.2534 24.6799C26.0134 24.8949 25.7151 24.9999 25.4167 24.9999Z" fill="#02549D"></path><path d="M14.5834 25C14.2851 25 13.9867 24.895 13.7467 24.68L9.58008 20.93C9.31675 20.6916 9.16675 20.3533 9.16675 20C9.16675 19.6466 9.31675 19.3083 9.58008 19.07L13.7467 15.32C14.2601 14.8583 15.0484 14.9 15.5134 15.4133C15.9751 15.9266 15.9334 16.7166 15.4201 17.18L12.2851 20L15.4201 22.82C15.9334 23.2816 15.9751 24.0716 15.5134 24.5866C15.2651 24.8616 14.9251 25 14.5834 25Z" fill="#02549D"></path></g><defs><clipPath id="clip0"><rect width="40" height="40" fill="white"></rect></clipPath></defs></svg>