<svg xmlns="http://www.w3.org/2000/svg" width="80" height="80" viewBox="0 0 80 80" fill="none"><circle cx="40" cy="40" r="40" fill="white"></circle><path d="M56.9921 51.0784L55.9045 50.4492C55.1238 49.9975 55.1217 48.8684 55.9045 48.4155L56.9921 47.7862C57.5527 47.4621 57.7447 46.744 57.4212 46.1825L55.0774 42.1148C54.7537 41.5533 54.0371 41.3607 53.4765 41.6851L52.3889 42.3144C51.6064 42.767 50.631 42.2012 50.631 41.2976V40.039C50.631 39.3905 50.1065 38.865 49.4592 38.865H48.2031V24.3054C48.2031 21.9315 46.2756 20 43.9062 20H26.7187C24.3494 20 22.4219 21.9315 22.4219 24.3054V55.6948C22.4219 58.0688 24.3494 59.9999 26.7187 59.9999H49.4592C50.1065 59.9999 50.631 59.4744 50.631 58.8259V57.5674C50.631 56.6644 51.6064 56.0976 52.3889 56.5505L53.4765 57.1798C54.0368 57.5039 54.7537 57.3113 55.0774 56.7498L57.4212 52.6824C57.7447 52.1209 57.5527 51.4028 56.9921 51.0784ZM44.7717 38.865C44.1244 38.865 43.5998 39.3905 43.5998 40.039V41.2976C43.5998 42.2009 42.6245 42.7673 41.842 42.3144L40.7544 41.6851C40.1938 41.3607 39.4769 41.5536 39.1534 42.1151L36.8097 46.1825C36.4862 46.744 36.6781 47.4621 37.2387 47.7862L38.3264 48.4158C39.107 48.8674 39.1089 49.9966 38.3264 50.4495L38.1897 50.5285H24.7656V29.3933H45.8593V38.865H44.7717ZM26.7187 22.3483H43.9062C44.9832 22.3483 45.8593 23.2263 45.8593 24.3054V27.045H24.7656V24.3054C24.7656 23.2263 25.6418 22.3483 26.7187 22.3483ZM24.7656 55.6945V52.8765H36.9217L39.1534 56.7498C39.4772 57.3116 40.1938 57.5039 40.7544 57.1795L41.842 56.5505C42.5537 56.1388 43.5998 56.5435 43.5998 57.6516H26.7187C25.6418 57.6516 24.7656 56.7736 24.7656 55.6945ZM54.8052 52.5253L53.6334 54.559C51.2069 53.1561 48.2873 54.7924 48.2873 57.6516C47.264 57.6516 46.7013 57.6516 45.9436 57.6516C45.9436 54.7927 43.0261 53.1548 40.5972 54.559L39.4253 52.5253C41.8737 51.1071 41.8762 47.759 39.4253 46.3397L40.5972 44.306C43.0236 45.7089 45.9436 44.0725 45.9436 41.2133H48.2873C48.2873 44.0264 51.1651 45.733 53.6334 44.306L54.8052 46.3397C52.3913 47.738 52.322 51.087 54.8052 52.5253Z" fill="#02549D"></path><path d="M47.1155 45.9099C45.177 45.9099 43.5999 47.4901 43.5999 49.4323C43.5999 51.3747 45.177 52.9549 47.1155 52.9549C49.054 52.9549 50.6311 51.3747 50.6311 49.4323C50.6311 47.4901 49.054 45.9099 47.1155 45.9099ZM47.1155 50.6066C46.4691 50.6066 45.9436 50.0798 45.9436 49.4323C45.9436 48.785 46.4691 48.2582 47.1155 48.2582C47.7615 48.2582 48.2874 48.785 48.2874 49.4323C48.2874 50.0798 47.7615 50.6066 47.1155 50.6066Z" fill="#02549D"></path></svg>